<svg width="34" height="34" viewBox="0 0 34 34" fill="none" xmlns="http://www.w3.org/2000/svg">
<path fill-rule="evenodd" clip-rule="evenodd" d="M16.6359 0C25.8236 0 33.2717 7.44822 33.2717 16.6361C33.2717 25.8236 25.8236 33.2718 16.6359 33.2718C7.44808 33.2718 0 25.8236 0 16.6361C0 7.44822 7.44808 0 16.6359 0Z" fill="#212A3A"/>
<path d="M16.4568 5.78594C16.407 5.78675 16.3577 5.79529 16.3105 5.81126C15.4965 5.82328 14.6964 5.91058 13.9387 6.10001C13.61 6.18002 13.2852 6.28113 12.9627 6.39907C12.8855 6.40778 12.8115 6.43512 12.7471 6.47876C12.3348 6.62952 11.9347 6.80415 11.5546 7.00563C10.9307 7.32966 10.3464 7.73202 9.79961 8.17938C9.72641 8.20911 9.66169 8.25645 9.61117 8.31719C9.56009 8.3599 9.50902 8.40252 9.4593 8.44844C8.82634 9.01107 8.25845 9.64876 7.77086 10.3525C7.62738 10.5588 7.49592 10.7737 7.36961 10.99C7.31904 11.0469 7.28272 11.115 7.26367 11.1888C6.70938 12.1694 6.30943 13.2503 6.09836 14.3922C6.06606 14.4597 6.05001 14.5339 6.05148 14.6088C6.02355 14.7647 5.99677 14.9218 5.9793 15.0878C5.92956 15.5031 5.9043 15.9236 5.9043 16.3525C5.9043 16.7814 5.92956 17.2019 5.9793 17.6172C5.99677 17.7832 6.02355 17.9404 6.05148 18.0963C6.05015 18.1708 6.0662 18.2446 6.09836 18.3119C6.30923 19.4533 6.708 20.534 7.2618 21.5144C7.28112 21.5889 7.3181 21.6578 7.36961 21.715C7.49605 21.9316 7.62721 22.1469 7.77086 22.3534C8.25897 23.0578 8.82696 23.6902 9.45742 24.2556C9.50698 24.3015 9.5584 24.3433 9.6093 24.3859L9.61023 24.3869C9.66106 24.4486 9.72647 24.4966 9.80055 24.5266H9.80148C10.3478 24.9734 10.9313 25.3757 11.5546 25.6994C11.9347 25.9009 12.3348 26.0755 12.7471 26.2263C12.8112 26.2698 12.8849 26.2971 12.9618 26.3059C13.2846 26.424 13.6098 26.5249 13.9387 26.605C14.6964 26.7944 15.4965 26.8817 16.3105 26.8938C16.4103 26.9275 16.5183 26.9275 16.618 26.8938C17.4321 26.8817 18.2322 26.7944 18.9899 26.605C19.3185 26.525 19.6434 26.4239 19.9659 26.3059C20.0431 26.2972 20.1171 26.2699 20.1815 26.2263C20.5938 26.0755 20.9939 25.9009 21.374 25.6994C21.9979 25.3754 22.5822 24.973 23.129 24.5256C23.2022 24.4959 23.2669 24.4486 23.3174 24.3878C23.369 24.3447 23.421 24.3021 23.4712 24.2556C24.1016 23.6902 24.6696 23.0578 25.1577 22.3534V22.3525C25.3012 22.1462 25.4327 21.9313 25.559 21.715C25.6096 21.6581 25.6459 21.59 25.6649 21.5163C26.2192 20.5356 26.6192 19.4547 26.8302 18.3128C26.8625 18.2453 26.8786 18.1711 26.8771 18.0963C26.905 17.9404 26.9318 17.7832 26.9493 17.6172C26.999 17.2019 27.0243 16.7814 27.0243 16.3525C27.0243 15.9236 26.999 15.5031 26.9493 15.0878C26.9318 14.9218 26.905 14.7647 26.8771 14.6088C26.8784 14.5342 26.8624 14.4604 26.8302 14.3931C26.6194 13.2517 26.2206 12.171 25.6668 11.1906C25.6475 11.1161 25.6105 11.0473 25.559 10.99C25.4327 10.7737 25.3012 10.5588 25.1577 10.3525V10.3516C24.6702 9.64808 24.1021 9.01092 23.4693 8.44844C23.4202 8.40313 23.3697 8.36125 23.3193 8.31907C23.319 8.31876 23.3187 8.31844 23.3184 8.31813C23.2675 8.25645 23.2021 8.20844 23.128 8.17844C23.1277 8.17844 23.1274 8.17844 23.1271 8.17844C22.5808 7.73163 21.9973 7.32934 21.374 7.00563C20.9939 6.80415 20.5938 6.62952 20.1815 6.47876C20.1174 6.43526 20.0437 6.40792 19.9668 6.39907C19.644 6.28098 19.3188 6.18009 18.9899 6.10001C18.2322 5.91058 17.4321 5.82328 16.618 5.81126C16.5661 5.79368 16.5116 5.78511 16.4568 5.78594ZM12.8596 6.42907C12.8563 6.43023 12.8536 6.43259 12.8502 6.43376C12.8487 6.43433 12.8471 6.43412 12.8455 6.43469L12.8596 6.42907ZM20.069 6.42907L20.083 6.43469C20.0816 6.43412 20.0799 6.43433 20.0784 6.43376C20.075 6.43259 20.0723 6.43024 20.069 6.42907ZM15.9843 6.81063V8.72969C15.5239 8.75882 15.0623 8.78702 14.6277 8.89282C14.6274 8.89282 14.6271 8.89282 14.6268 8.89282C14.5158 8.92004 14.4076 8.96116 14.2977 8.99313L13.6415 7.19219C13.8163 7.13841 13.9845 7.07662 14.1684 7.03188C14.1693 7.03157 14.1702 7.03126 14.1712 7.03094C14.7477 6.8868 15.3656 6.84212 15.9843 6.81063ZM16.9443 6.81063C17.563 6.84212 18.1809 6.8868 18.7574 7.03094C18.7584 7.03126 18.7593 7.03157 18.7602 7.03188C18.9441 7.07662 19.1123 7.13841 19.2871 7.19219L18.6309 8.99313C18.521 8.96116 18.4128 8.92004 18.3018 8.89282C18.3015 8.89282 18.3012 8.89282 18.3009 8.89282C17.8663 8.78702 17.4047 8.75882 16.9443 8.72969V6.81063ZM12.7424 7.52688L13.3977 9.32969C13.2296 9.40312 13.0584 9.46549 12.8952 9.55376L12.8943 9.55469C12.6368 9.69028 12.407 9.87936 12.164 10.0441C12.0659 10.057 11.9742 10.0999 11.9015 10.1669L10.694 8.72876C11.1129 8.41162 11.5361 8.09612 12.0009 7.85501C12.0021 7.85439 12.0034 7.85376 12.0046 7.85313C12.2446 7.7259 12.4948 7.63107 12.7424 7.52688ZM20.1862 7.52688C20.4338 7.63107 20.684 7.7259 20.924 7.85313C20.9252 7.85376 20.9265 7.85439 20.9277 7.85501C21.3925 8.09612 21.8157 8.41162 22.2346 8.72876L21.0271 10.1669C20.9542 10.1002 20.8626 10.0577 20.7646 10.045C20.5214 9.88019 20.292 9.69036 20.0343 9.55469C19.8708 9.46619 19.6993 9.40328 19.5309 9.32969L20.1862 7.52688ZM9.94867 9.33344L11.1871 10.8091C10.8069 11.1716 10.4421 11.5537 10.1409 11.9903C10.1143 12.0284 10.0941 12.0682 10.0687 12.1066L8.40461 11.1456C8.45689 11.0644 8.50473 10.9784 8.5593 10.9C8.5593 10.8997 8.5593 10.8994 8.5593 10.8991C8.96005 10.3207 9.43828 9.80836 9.94867 9.33344ZM22.9799 9.33344C23.4903 9.80836 23.9685 10.3207 24.3693 10.8991C24.3693 10.8994 24.3693 10.8997 24.3693 10.9C24.4239 10.9784 24.4717 11.0644 24.524 11.1456L22.8599 12.1066C22.8345 12.0682 22.8143 12.0284 22.7877 11.9903L22.7859 11.9884C22.485 11.5527 22.1211 11.171 21.7415 10.8091L22.9799 9.33344ZM15.9843 9.68969V11.5769C15.2838 11.6469 14.629 11.8719 14.0493 12.2116L12.9337 10.6769C13.0737 10.5903 13.1956 10.4804 13.3424 10.4031C13.344 10.4022 13.3456 10.4013 13.3471 10.4003C13.5908 10.2682 13.8522 10.1567 14.1187 10.0572C14.1551 10.0479 14.1904 10.0344 14.2237 10.0169C14.4256 9.94279 14.6331 9.87926 14.8555 9.82469L14.8546 9.82563C15.2165 9.73751 15.6019 9.71727 15.9843 9.68969ZM16.9443 9.68969C17.3267 9.71727 17.712 9.73751 18.074 9.82563L18.073 9.82469C18.2958 9.87933 18.5037 9.94266 18.7059 10.0169C18.7397 10.0348 18.7756 10.0487 18.8127 10.0581C19.0783 10.1574 19.3387 10.2686 19.5815 10.4003C19.583 10.4013 19.5846 10.4022 19.5862 10.4031C19.733 10.4804 19.8549 10.5903 19.9949 10.6769L18.8793 12.2116C18.2996 11.8719 17.6448 11.6469 16.9443 11.5769V9.68969ZM12.1405 11.2178L13.274 12.7778C12.7655 13.2322 12.3521 13.7905 12.073 14.4222L10.2496 13.8278C10.3578 13.5543 10.4767 13.2884 10.6218 13.0394C10.644 13.0089 10.6626 12.9758 10.6771 12.9409C10.7584 12.8012 10.8409 12.666 10.9302 12.5378C10.9305 12.5372 10.9309 12.5366 10.9312 12.5359C11.24 12.0884 11.6036 11.6799 12.0074 11.3209C12.008 11.3203 12.0087 11.3197 12.0093 11.3191C12.0389 11.2924 12.0558 11.2784 12.0768 11.2609C12.0774 11.2606 12.078 11.2603 12.0787 11.26C12.1004 11.2476 12.1211 11.2335 12.1405 11.2178ZM20.788 11.2178C20.807 11.2327 20.8271 11.2462 20.848 11.2581C20.8697 11.276 20.8881 11.291 20.9193 11.3191C20.9199 11.3197 20.9205 11.3203 20.9212 11.3209C21.325 11.6799 21.6886 12.0884 21.9974 12.5359C21.9977 12.5366 21.998 12.5372 21.9984 12.5378C22.0879 12.6662 22.1701 12.8019 22.2515 12.9419C22.2661 12.9775 22.285 13.0111 22.3077 13.0422C22.308 13.0425 22.3084 13.0428 22.3087 13.0431C22.452 13.2894 22.571 13.5543 22.6818 13.8269L20.8555 14.4222C20.5765 13.7905 20.1631 13.2322 19.6546 12.7778L20.788 11.2178ZM7.9443 11.9875L9.60836 12.9475C9.49738 13.1714 9.37432 13.3903 9.28773 13.6244V13.6253C9.2626 13.6897 9.25399 13.7617 9.23055 13.8269C9.19165 13.8766 9.16293 13.9335 9.14604 13.9943C9.12915 14.0551 9.12442 14.1186 9.13211 14.1813C9.09484 14.3036 9.05884 14.4264 9.02805 14.5516L7.1343 14.2178C7.31122 13.4334 7.584 12.6864 7.9443 11.9875ZM24.9843 11.9875C25.3446 12.6864 25.6174 13.4334 25.7943 14.2178L23.9024 14.5516C23.8716 14.4238 23.8351 14.298 23.7974 14.1728C23.81 14.0522 23.7765 13.9313 23.7037 13.8344C23.6794 13.7662 23.6719 13.6918 23.6455 13.6244C23.5564 13.3912 23.4337 13.1709 23.3221 12.9466L24.9843 11.9875ZM16.408 12.5153C16.4467 12.52 16.4857 12.52 16.5243 12.5153C17.3048 12.5273 18.028 12.7684 18.628 13.1772C18.6756 13.2339 18.7356 13.2788 18.8034 13.3084C19.3827 13.7537 19.8287 14.36 20.0784 15.0625C20.0847 15.1387 20.1091 15.2123 20.1496 15.2772C20.2485 15.6186 20.3043 15.9785 20.3043 16.3525C20.3043 16.7259 20.2482 17.0851 20.1496 17.4259C20.1088 17.4914 20.0844 17.5656 20.0784 17.6425C19.829 18.3442 19.3836 18.9496 18.8052 19.3947C18.7366 19.4246 18.6759 19.4702 18.628 19.5278C18.0271 19.9373 17.3025 20.1784 16.5205 20.1897C16.4819 20.185 16.4429 20.185 16.4043 20.1897C14.758 20.1644 13.3725 19.112 12.8502 17.6425C12.8439 17.5663 12.8195 17.4927 12.779 17.4278C12.68 17.0864 12.6243 16.7265 12.6243 16.3525C12.6243 15.9791 12.6804 15.6199 12.779 15.2791C12.8198 15.2137 12.8442 15.1394 12.8502 15.0625C13.3729 13.5919 14.7601 12.539 16.408 12.5153ZM22.9649 14.7438C22.9975 14.8757 23.0495 14.9998 23.0737 15.1356C23.0763 15.1729 23.0832 15.2097 23.0943 15.2453C23.1092 15.346 23.1243 15.4441 23.1346 15.5369C23.1346 15.5381 23.1346 15.5394 23.1346 15.5406C23.1661 15.8066 23.1843 16.0807 23.1843 16.3525C23.1843 16.6243 23.1662 16.8984 23.1346 17.1644C23.1346 17.1656 23.1346 17.1669 23.1346 17.1681C23.1242 17.2615 23.1093 17.3602 23.0943 17.4616C23.0834 17.4963 23.0765 17.5322 23.0737 17.5684C23.0495 17.7046 22.9975 17.829 22.9649 17.9613L21.1527 17.3716C21.2243 17.0427 21.2643 16.7024 21.2643 16.3525C21.2643 16.0026 21.2243 15.6623 21.1527 15.3334L22.9649 14.7438ZM9.96555 14.7447L11.7759 15.3334C11.7043 15.6623 11.6643 16.0026 11.6643 16.3525C11.6643 16.7024 11.7043 17.0427 11.7759 17.3716L9.96555 17.9603C9.9324 17.8286 9.87899 17.7033 9.85492 17.5684C9.85226 17.5315 9.84534 17.495 9.8343 17.4597C9.81938 17.359 9.80429 17.2609 9.79398 17.1681C9.79399 17.1669 9.79399 17.1656 9.79398 17.1644C9.76242 16.8984 9.7443 16.6243 9.7443 16.3525C9.7443 16.0807 9.76243 15.8066 9.79398 15.5406C9.79399 15.5394 9.79399 15.5381 9.79398 15.5369C9.80436 15.4435 9.81927 15.3449 9.8343 15.2434C9.84513 15.209 9.85205 15.1735 9.85492 15.1375C9.87903 15.0023 9.93233 14.8767 9.96555 14.7447ZM6.93836 15.1581L8.8368 15.4928C8.8057 15.7733 8.7843 16.061 8.7843 16.3525C8.7843 16.644 8.8057 16.9317 8.8368 17.2122L6.93836 17.5469C6.93725 17.537 6.93472 17.5268 6.93367 17.5169C6.93338 17.5144 6.93307 17.5119 6.93273 17.5094C6.88706 17.1303 6.8643 16.7467 6.8643 16.3525C6.8643 15.9583 6.88706 15.5747 6.93273 15.1956C6.93307 15.1931 6.93338 15.1906 6.93367 15.1881C6.93472 15.1782 6.93725 15.1681 6.93836 15.1581ZM25.9902 15.1581C25.9913 15.1681 25.9939 15.1782 25.9949 15.1881C25.9952 15.1906 25.9955 15.1931 25.9959 15.1956C26.0415 15.5747 26.0643 15.9583 26.0643 16.3525C26.0643 16.7467 26.0415 17.1303 25.9959 17.5094C25.9955 17.5119 25.9952 17.5144 25.9949 17.5169C25.9939 17.5268 25.9913 17.537 25.9902 17.5469L24.0918 17.2122C24.1229 16.9317 24.1443 16.644 24.1443 16.3525C24.1443 16.061 24.1229 15.7733 24.0918 15.4928L25.9902 15.1581ZM9.02805 18.1534C9.05891 18.279 9.09473 18.4021 9.13211 18.5247C9.11683 18.6509 9.15223 18.778 9.23055 18.8781C9.25399 18.9433 9.2626 19.0154 9.28773 19.0797V19.0806C9.37432 19.3148 9.49738 19.5336 9.60836 19.7575L7.9443 20.7175C7.584 20.0186 7.31122 19.2716 7.1343 18.4872L9.02805 18.1534ZM23.9024 18.1534L25.7943 18.4872C25.6174 19.2716 25.3446 20.0186 24.9843 20.7175L23.3221 19.7584C23.4337 19.5342 23.5564 19.3139 23.6455 19.0806C23.672 19.0129 23.6793 18.9382 23.7037 18.8697C23.7768 18.7725 23.8103 18.6512 23.7974 18.5303C23.8349 18.4057 23.8718 18.2807 23.9024 18.1534ZM12.073 18.2828C12.3521 18.9145 12.7655 19.4728 13.274 19.9272L12.1405 21.4872C12.1216 21.4723 12.1015 21.4588 12.0805 21.4469C12.0589 21.429 12.0405 21.414 12.0093 21.3859C12.0087 21.3853 12.008 21.3847 12.0074 21.3841C11.6036 21.0251 11.24 20.6166 10.9312 20.1691C10.9309 20.1684 10.9305 20.1678 10.9302 20.1672C10.8407 20.0388 10.7585 19.9031 10.6771 19.7631C10.6624 19.7276 10.6436 19.6939 10.6209 19.6628C10.6209 19.6625 10.6209 19.6622 10.6209 19.6619C10.4766 19.4139 10.3573 19.1495 10.2496 18.8772L12.073 18.2828ZM20.8555 18.2828L22.6818 18.8781C22.5706 19.1517 22.4508 19.4176 22.3068 19.6647C22.2845 19.6955 22.2659 19.7289 22.2515 19.7641C22.1702 19.9038 22.0877 20.039 21.9984 20.1672C21.998 20.1678 21.9977 20.1684 21.9974 20.1691C21.6886 20.6166 21.325 21.0251 20.9212 21.3841C20.9205 21.3847 20.9199 21.3853 20.9193 21.3859C20.8897 21.4126 20.8727 21.4266 20.8518 21.4441C20.8513 21.4445 20.8504 21.4446 20.8499 21.445C20.8282 21.4574 20.8075 21.4715 20.788 21.4872L19.6546 19.9272C20.1631 19.4728 20.5765 18.9145 20.8555 18.2828ZM14.0493 20.4934C14.629 20.8331 15.2838 21.0581 15.9843 21.1281V23.0153C15.6019 22.9877 15.2166 22.9675 14.8546 22.8794L14.8555 22.8803C14.6328 22.8257 14.4249 22.7624 14.2227 22.6881C14.1889 22.6702 14.153 22.6563 14.1159 22.6469C13.8503 22.5476 13.5899 22.4364 13.3471 22.3047C13.3456 22.3037 13.344 22.3028 13.3424 22.3019C13.1956 22.2246 13.0737 22.1147 12.9337 22.0281L14.0493 20.4934ZM18.8793 20.4934L19.9949 22.0281C19.8549 22.1147 19.733 22.2246 19.5862 22.3019C19.5846 22.3028 19.583 22.3037 19.5815 22.3047C19.3378 22.4368 19.0764 22.5483 18.8099 22.6478C18.7735 22.6571 18.7382 22.6706 18.7049 22.6881C18.503 22.7622 18.2955 22.8258 18.073 22.8803L18.074 22.8794C17.712 22.9675 17.3267 22.9877 16.9443 23.0153V21.1281C17.6448 21.0581 18.2996 20.8331 18.8793 20.4934ZM10.0687 20.5984C10.0946 20.6375 10.1157 20.6778 10.1427 20.7166C10.4436 21.1523 10.8075 21.534 11.1871 21.8959L9.94867 23.3716C9.43711 22.8928 8.95916 22.3831 8.5593 21.8059C8.5593 21.8056 8.5593 21.8053 8.5593 21.805C8.50473 21.7266 8.45689 21.6406 8.40461 21.5594L10.0687 20.5984ZM22.8599 20.5984L24.524 21.5594C24.4717 21.6406 24.4239 21.7266 24.3693 21.805C24.3693 21.8053 24.3693 21.8056 24.3693 21.8059C23.9694 22.3831 23.4915 22.8928 22.9799 23.3716L21.7415 21.8959C22.1211 21.534 22.485 21.1523 22.7859 20.7166L22.7877 20.7147C22.8143 20.6766 22.8345 20.6368 22.8599 20.5984ZM11.9015 22.5381C11.9742 22.6051 12.0659 22.648 12.164 22.6609C12.407 22.8257 12.6368 23.0147 12.8943 23.1503L12.8952 23.1513C13.0584 23.2395 13.2296 23.3019 13.3977 23.3753L12.7424 25.1781C12.4948 25.0739 12.2446 24.9791 12.0046 24.8519C12.0034 24.8513 12.0021 24.8506 12.0009 24.85C11.5361 24.6089 11.1129 24.2934 10.694 23.9763L11.9015 22.5381ZM21.0271 22.5391L22.2346 23.9763C21.8157 24.2934 21.3925 24.6089 20.9277 24.85C20.9265 24.8506 20.9252 24.8513 20.924 24.8519C20.684 24.9791 20.4338 25.0739 20.1862 25.1781L19.5309 23.3753C19.699 23.3019 19.8702 23.2395 20.0334 23.1513L20.0343 23.1503C20.2918 23.0147 20.5216 22.8257 20.7646 22.6609C20.8626 22.6483 20.9542 22.6057 21.0271 22.5391ZM14.2977 23.7119C14.4076 23.7439 14.5158 23.785 14.6268 23.8122C14.6271 23.8122 14.6274 23.8122 14.6277 23.8122C15.0623 23.918 15.5239 23.9462 15.9843 23.9753V25.8944C15.3656 25.8629 14.7477 25.8182 14.1712 25.6741C14.1702 25.6738 14.1693 25.6734 14.1684 25.6731C13.9845 25.6284 13.8163 25.5666 13.6415 25.5128L14.2977 23.7119ZM18.6309 23.7119L19.2871 25.5128C19.1123 25.5666 18.9441 25.6284 18.7602 25.6731C18.7593 25.6734 18.7584 25.6738 18.7574 25.6741C18.1809 25.8182 17.563 25.8629 16.9443 25.8944V23.9753C17.4047 23.9462 17.8663 23.918 18.3009 23.8122C18.3012 23.8122 18.3015 23.8122 18.3018 23.8122C18.4128 23.785 18.521 23.7439 18.6309 23.7119ZM12.8455 26.2703C12.847 26.2709 12.8487 26.2707 12.8502 26.2713C12.8535 26.2724 12.8563 26.2747 12.8596 26.2759L12.8455 26.2703ZM20.083 26.2703L20.069 26.2759C20.0723 26.2748 20.075 26.2725 20.0784 26.2713C20.0798 26.2707 20.0816 26.2709 20.083 26.2703Z" fill="#FEFAFA"/>
</svg>
